<?xml version="1.0" encoding="UTF-8"?><svg id="Layer_2" xmlns="http://www.w3.org/2000/svg" viewBox="0 0 124.93 119.36"><defs><style>.cls-1{fill:snow;}</style></defs><g id="Layer_1-2"><path class="cls-1" d="m62.36,17.59c-5.72,7.12-9.3,15.57-11.84,24.27l-1.1,4.45c-.19.93-.37,1.88-.36,2.83-1.69-1.75-6.97-6.64-9.25-7.55l-.08-.12c-.02-.29.11-.75.17-1.05,2.45-14.34,10.44-28.05,20.55-38.28.71-.72,2.15-2.14,2.15-2.14,0,0,12.7,14.51,16.64,22.58l3.42,8.22c1.18,3.47,2.12,6.94,2.7,10.56-3.33,2.28-6.48,4.56-9.17,7.6-1.18-8.88-5.67-19.68-10.44-27.08-.96-1.49-1.97-3.14-3.25-4.37l-.12.09Z"/><path class="cls-1" d="m58.89,85.83l-11.75,1.76c-22.15,1.56-41.79-14.92-46.19-36.33C-.07,46.27,0,41.49,0,36.45c0-.82.07-1.68,0-2.5v-.06s7.68.05,7.68.05c1.73,0,3.51-.07,5.23.06,13.96,1.05,26.29,7.4,35.32,18.21,7.74,9.27,12.42,21.28,12.64,33.38l-2.01.24Z"/><path class="cls-1" d="m74.21,87.06l-9.94-1.5c.52-26.53,20.43-49.71,47.21-51.56,1.36-.09,2.74-.06,4.11-.06h9.34s0,9.36,0,9.36c-1.1,24.51-20.77,45.49-45.91,44.29-1.6-.08-3.21-.3-4.8-.53Z"/><path class="cls-1" d="m59.1,117.97c-1.4-1.4-1.27-3.53-1.19-5.26.17-3.65.31-8.8.15-15.69-.2.07-.46.18-.78.24-.28.06-.58.11-.82.18-3.65,1.16-6.05,3.27-9.09,5.47-9.38,6.8-20.75,7.8-31.15,2.61-1.06-.53-2.21-1.06-3.12-1.85-3.42-2.96-.74-8.76,3.72-7.95,1.12.2,2.2,1.12,3.2,1.64,7.25,3.78,15.42,3.27,21.98-1.59,6.76-5.01,10.08-7.46,19.23-8.06,4.91-.14,9.83.66,14.24,2.91,3.95,2.02,7.1,5.32,11.08,7.24,5.41,2.61,14.01,2.86,19.19-.58.82-.55,1.61-1.25,2.56-1.56,4.04-1.33,7.46,3.02,5.51,6.64-1.28,2.36-6.93,4.39-9.47,5.18-8.39,2.59-17.59,1.09-24.98-3.52-3.49-2.18-6.23-5.13-10.27-6.36-.65-.18-1.3-.36-1.95-.54.19,6.84.42,11.84.62,15.52.1,1.88.23,3.99-1.16,5.38-1.82,1.82-5.67,1.8-7.5-.03Z"/></g></svg>